HIERARCHY
ROOT hip
{
  OFFSET 0 0 0
  CHANNELS 6 Xposition Yposition Zposition Zrotation Yrotation Xrotation
  JOINT abdomen
  {
    OFFSET 0 20.6881 -0.73152
    CHANNELS 3 Zrotation Xrotation Yrotation
    JOINT chest
    {
      OFFSET 0 11.7043 -0.48768
      CHANNELS 3 Zrotation Xrotation Yrotation
      JOINT neck
      {
        OFFSET 0 22.1894 -2.19456
        CHANNELS 3 Zrotation Xrotation Yrotation
        JOINT head
        {
          OFFSET -0.24384 7.07133 1.2192
          CHANNELS 3 Zrotation Xrotation Yrotation
          JOINT leftEye
          {
            OFFSET 4.14528 8.04674 8.04672
            CHANNELS 3 Zrotation Xrotation Yrotation
            End Site
            {
              OFFSET 1 0 0
            }
          }
          JOINT rightEye
          {
            OFFSET -3.6576 8.04674 8.04672
            CHANNELS 3 Zrotation Xrotation Yrotation
            End Site
            {
              OFFSET 1 0 0
            }
          }
        }
      }
      JOINT rCollar
      {
        OFFSET -2.68224 19.2634 -4.8768
        CHANNELS 3 Zrotation Xrotation Yrotation
        JOINT rShldr
        {
          OFFSET -8.77824 -1.95073 1.46304
          CHANNELS 3 Zrotation Xrotation Yrotation
          JOINT rForeArm
          {
            OFFSET -28.1742 -1.7115 0.48768
            CHANNELS 3 Zrotation Xrotation Yrotation
            JOINT rHand
            {
              OFFSET -22.5879 0.773209 7.07136
              CHANNELS 3 Zrotation Xrotation Yrotation
              JOINT rThumb1
              {
                OFFSET -1.2192 -0.487915 3.41376
                CHANNELS 3 Zrotation Xrotation Yrotation
                JOINT rThumb2
                {
                  OFFSET -3.37035 -0.52449 3.41376
                  CHANNELS 3 Zrotation Xrotation Yrotation
                  End Site
                  {
                    OFFSET -1.78271 -1.18214 1.43049
                  }
                }
              }
              JOINT rIndex1
              {
                OFFSET -7.75947 0.938293 5.60832
                CHANNELS 3 Zrotation Xrotation Yrotation
                JOINT rIndex2
                {
                  OFFSET -2.54057 -0.884171 1.56538
                  CHANNELS 3 Zrotation Xrotation Yrotation
                  End Site
                  {
                    OFFSET -1.62519 -0.234802 1.16502
                  }
                }
              }
              JOINT rMid1
              {
                OFFSET -8.24714 1.18213 3.41376
                CHANNELS 3 Zrotation Xrotation Yrotation
                JOINT rMid2
                {
                  OFFSET -3.10165 -0.590103 1.0647
                  CHANNELS 3 Zrotation Xrotation Yrotation
                  End Site
                  {
                    OFFSET -2.48547 -0.328903 0.83742
                  }
                }
              }
              JOINT rRing1
              {
                OFFSET -8.82822 0.546677 1.51678
                CHANNELS 3 Zrotation Xrotation Yrotation
                JOINT rRing2
                {
                  OFFSET -2.60934 -0.819778 -0.0198488
                  CHANNELS 3 Zrotation Xrotation Yrotation
                  End Site
                  {
                    OFFSET -2.33842 -0.294052 0.168128
                  }
                }
              }
              JOINT rPinky1
              {
                OFFSET -8.27202 -0.0477905 -0.4584
                CHANNELS 3 Zrotation Xrotation Yrotation
                JOINT rPinky2
                {
                  OFFSET -1.82734 -0.647385 -0.700984
                  CHANNELS 3 Zrotation Xrotation Yrotation
                  End Site
                  {
                    OFFSET -1.69225 -0.51767 -0.607171
                  }
                }
              }
            }
          }
        }
      }
      JOINT lCollar
      {
        OFFSET 2.68224 19.2634 -4.8768
        CHANNELS 3 Zrotation Xrotation Yrotation
        JOINT lShldr
        {
          OFFSET 8.77824 -1.95073 1.46304
          CHANNELS 3 Zrotation Xrotation Yrotation
          JOINT lForeArm
          {
            OFFSET 28.1742 -1.7115 0.48768
            CHANNELS 3 Zrotation Xrotation Yrotation
            JOINT lHand
            {
              OFFSET 22.5879 0.773209 7.07136
              CHANNELS 3 Zrotation Xrotation Yrotation
              JOINT lThumb1
              {
                OFFSET 1.2192 -0.487915 3.41376
                CHANNELS 3 Zrotation Xrotation Yrotation
                JOINT lThumb2
                {
                  OFFSET 3.37035 -0.52449 3.41376
                  CHANNELS 3 Zrotation Xrotation Yrotation
                  End Site
                  {
                    OFFSET 1.78271 -1.18214 1.43049
                  }
                }
              }
              JOINT lIndex1
              {
                OFFSET 7.75947 0.938293 5.60832
                CHANNELS 3 Zrotation Xrotation Yrotation
                JOINT lIndex2
                {
                  OFFSET 2.54057 -0.884171 1.56538
                  CHANNELS 3 Zrotation Xrotation Yrotation
                  End Site
                  {
                    OFFSET 1.62519 -0.234802 1.16502
                  }
                }
              }
              JOINT lMid1
              {
                OFFSET 8.24714 1.18213 3.41376
                CHANNELS 3 Zrotation Xrotation Yrotation
                JOINT lMid2
                {
                  OFFSET 3.10165 -0.590103 1.0647
                  CHANNELS 3 Zrotation Xrotation Yrotation
                  End Site
                  {
                    OFFSET 2.48547 -0.328903 0.83742
                  }
                }
              }
              JOINT lRing1
              {
                OFFSET 8.82822 0.546677 1.51678
                CHANNELS 3 Zrotation Xrotation Yrotation
                JOINT lRing2
                {
                  OFFSET 2.60934 -0.819778 -0.0198488
                  CHANNELS 3 Zrotation Xrotation Yrotation
                  End Site
                  {
                    OFFSET 2.33842 -0.294052 0.168128
                  }
                }
              }
              JOINT lPinky1
              {
                OFFSET 8.27202 -0.0477905 -0.4584
                CHANNELS 3 Zrotation Xrotation Yrotation
                JOINT lPinky2
                {
                  OFFSET 1.82734 -0.647385 -0.700984
                  CHANNELS 3 Zrotation Xrotation Yrotation
                  End Site
                  {
                    OFFSET 1.69225 -0.51767 -0.607171
                  }
                }
              }
            }
          }
        }
      }
    }
  }
  JOINT rButtock
  {
    OFFSET -8.77824 4.35084 1.2192
    CHANNELS 3 Zrotation Xrotation Yrotation
    JOINT rThigh
    {
      OFFSET 0 -1.70687 -2.19456
      CHANNELS 3 Zrotation Xrotation Yrotation
      JOINT rShin
      {
        OFFSET 0 -36.8199 0.73152
        CHANNELS 3 Zrotation Xrotation Yrotation
        JOINT rFoot
        {
          OFFSET 0.73152 -45.1104 -5.12064
          CHANNELS 3 Zrotation Xrotation Yrotation
          End Site
          {
            OFFSET -1.1221 -3.69964 12.103
          }
        }
      }
    }
  }
  JOINT lButtock
  {
    OFFSET 8.77824 4.35084 1.2192
    CHANNELS 3 Zrotation Xrotation Yrotation
    JOINT lThigh
    {
      OFFSET 0 -1.70687 -2.19456
      CHANNELS 3 Zrotation Xrotation Yrotation
      JOINT lShin
      {
        OFFSET 0 -36.8199 0.73152
        CHANNELS 3 Zrotation Xrotation Yrotation
        JOINT lFoot
        {
          OFFSET -0.73152 -45.1104 -5.12064
          CHANNELS 3 Zrotation Xrotation Yrotation
          End Site
          {
            OFFSET 1.1221 -3.69964 12.103
          }
        }
      }
    }
  }
}
MOTION
Frames:	5
Frame Time:	0.00833333
-22.2701 81.3272 -36.3872 179.021 171.845 551.898 5.48225 -8.56328 -1.8822 1.89883 -0.158045 -0.640662 3.97287 10.565 10.3392 -8.80225 -15.4425 18.7704 -0.0 0.0 0.0 -0.0 0.0 0.0 -1.3506e-15 2.8466e-13 -2.84759e-14 83.929 41.9971 -12.5839 -28.3015 -32.9153 71.9378 -0.000718511 -0.765378 -0.107573 -9.44549e-10 -1.054e-08 2.39221e-09 -1.63358e-09 -1.81973e-08 4.13198e-09 -9.44542e-10 -1.054e-08 2.3922e-09 7.73091 5.47488 0.417314 -9.44543e-10 -1.054e-08 2.39221e-09 2.90554 0.965183 0.102902 -9.44538e-10 -1.054e-08 2.39221e-09 10.2786 0.731801 0.0259123 -9.44557e-10 -1.054e-08 2.39222e-09 2.22167 -0.733487 -0.20892 -1.53186e-15 2.84658e-13 -2.87741e-14 -86.1293 -37.7939 -111.891 5.26747 -1.72714 -9.17989 0.823643 24.866 -3.73463 -5.63944e-11 2.9231e-09 -1.50818e-09 -1.24479e-10 5.04286e-09 -2.60054e-09 -5.63936e-11 2.92309e-09 -1.50816e-09 -7.73091 5.47488 -0.417314 -5.63929e-11 2.9231e-09 -1.50817e-09 -2.90554 0.965183 -0.102902 -5.64023e-11 2.9231e-09 -1.50817e-09 -10.2786 0.731801 -0.0259123 -5.63908e-11 2.9231e-09 -1.50818e-09 -2.22167 -0.733487 0.20892 -2.03217e-16 0.0 -3.88251e-19 0.853069 -10.268 4.67893 -0.156929 32.81 0.765457 -2.52509 -9.1924 -9.00073 2.03217e-16 0.0 3.88251e-19 7.51208 -34.7825 14.3613 0.241078 35.5809 -0.733847 5.22693 -8.88988 18.1966
-22.7746 81.2908 -36.6506 178.56 172.126 552.094 5.92855 -8.84451 -2.16837 1.98266 -0.140445 -0.730054 4.09579 10.7409 10.6498 -8.93535 -15.34 19.3617 -0.0 0.0 0.0 -0.0 0.0 0.0 4.15185e-14 3.31932e-13 -8.8182e-14 83.2698 43.1406 -11.304 -28.3176 -33.0825 72.2035 -0.000930399 -0.913103 -0.128337 -1.23067e-09 -1.7781e-08 3.53352e-09 -2.12888e-09 -3.07047e-08 6.10398e-09 -1.23066e-09 -1.7781e-08 3.53351e-09 7.73091 5.47488 0.417314 -1.23066e-09 -1.7781e-08 3.53352e-09 2.90554 0.965183 0.102902 -1.23066e-09 -1.7781e-08 3.53352e-09 10.2786 0.731801 0.0259123 -1.23068e-09 -1.7781e-08 3.53352e-09 2.22167 -0.733487 -0.20892 4.13301e-14 3.31927e-13 -8.84611e-14 -86.5728 -36.5176 -112.68 4.82231 -1.53686 -8.39931 0.946835 26.0882 -3.95724 1.5826e-10 2.84926e-09 -1.3424e-09 2.4802e-10 4.92437e-09 -2.31863e-09 1.5826e-10 2.84926e-09 -1.34238e-09 -7.73091 5.47488 -0.417314 1.58261e-10 2.84927e-09 -1.34239e-09 -2.90554 0.965183 -0.102902 1.58252e-10 2.84927e-09 -1.34239e-09 -10.2786 0.731801 -0.0259123 1.58263e-10 2.84927e-09 -1.3424e-09 -2.22167 -0.733487 0.20892 -2.03217e-16 0.0 -3.88251e-19 1.71436 -9.55731 4.67275 -0.118581 30.9115 0.759839 -2.70078 -10.1611 -9.24708 2.03217e-16 0.0 3.88251e-19 8.80785 -36.2405 14.7331 0.266455 37.3019 -0.797461 5.36694 -8.57268 18.8903
-23.2629 81.2146 -36.9267 178.002 172.162 552.324 6.27103 -9.1592 -2.54379 2.13481 -0.160337 -0.844338 4.21749 10.9477 10.9096 -9.12803 -15.1318 19.854 -0.0 0.0 0.0 -0.0 0.0 0.0 1.23702e-13 3.30159e-13 -1.23041e-13 82.5725 44.3264 -10.1453 -28.3351 -33.2803 72.5208 -0.00140618 -1.1206 -0.157508 -1.5051e-09 -2.50856e-08 4.39807e-09 -2.60395e-09 -4.33221e-08 7.59777e-09 -1.50509e-09 -2.50856e-08 4.39805e-09 7.73091 5.47488 0.417314 -1.50509e-09 -2.50856e-08 4.39806e-09 2.90554 0.965183 0.102902 -1.50509e-09 -2.50856e-08 4.39806e-09 10.2786 0.731801 0.0259123 -1.5051e-09 -2.50856e-08 4.39806e-09 2.22167 -0.733487 -0.20892 1.23514e-13 3.30153e-13 -1.23287e-13 -85.3592 -35.5518 -112.414 4.4675 -1.39587 -7.77251 0.941509 26.0189 -3.94526 5.90718e-10 2.42435e-09 -1.01404e-09 1.00013e-09 4.20503e-09 -1.7594e-09 5.90716e-10 2.42435e-09 -1.01403e-09 -7.73091 5.47488 -0.417314 5.90717e-10 2.42435e-09 -1.01404e-09 -2.90554 0.965183 -0.102902 5.90709e-10 2.42435e-09 -1.01404e-09 -10.2786 0.731801 -0.0259123 5.9072e-10 2.42435e-09 -1.01404e-09 -2.22167 -0.733487 0.20892 -2.03217e-16 0.0 -3.88251e-19 2.40526 -8.83994 4.37177 -0.0830027 29.1219 0.757226 -2.8455 -10.9361 -9.48267 2.03217e-16 0.0 3.88251e-19 9.9011 -37.7428 15.019 0.294512 39.0802 -0.863321 5.521 -8.33687 19.5337
-23.6589 81.1043 -37.1097 177.552 172.238 552.398 6.52353 -9.46007 -2.9512 2.30652 -0.222456 -0.965742 4.29389 11.1674 11.1414 -9.29288 -14.8766 20.301 -0.0 0.0 0.0 -0.0 0.0 0.0 2.08065e-13 3.14286e-13 -1.38361e-13 81.8317 45.5941 -9.05346 -28.3503 -33.474 72.8368 -0.00211388 -1.33886 -0.188197 -1.74422e-09 -3.13934e-08 5.01175e-09 -3.01797e-09 -5.42175e-08 8.65798e-09 -1.74422e-09 -3.13934e-08 5.01173e-09 7.73091 5.47488 0.417314 -1.74422e-09 -3.13934e-08 5.01174e-09 2.90554 0.965183 0.102902 -1.74421e-09 -3.13934e-08 5.01174e-09 10.2786 0.731801 0.0259123 -1.74423e-09 -3.13934e-08 5.01174e-09 2.22167 -0.733487 -0.20892 2.07882e-13 3.14277e-13 -1.38574e-13 -83.1897 -34.7486 -111.434 4.24931 -1.31518 -7.38323 0.861895 25.1821 -3.79436 1.09827e-09 1.99071e-09 -7.17614e-10 1.88206e-09 3.47244e-09 -1.25615e-09 1.09826e-09 1.99071e-09 -7.17603e-10 -7.73091 5.47488 -0.417314 1.09827e-09 1.99072e-09 -7.17615e-10 -2.90554 0.965183 -0.102902 1.09826e-09 1.99071e-09 -7.17611e-10 -10.2786 0.731801 -0.0259123 1.09827e-09 1.99072e-09 -7.17616e-10 -2.22167 -0.733487 0.20892 -2.03217e-16 0.0 -3.88251e-19 2.97352 -8.20525 3.94645 -0.0529852 27.6301 0.758278 -2.98434 -11.5866 -9.73679 2.03217e-16 0.0 3.88251e-19 10.827 -39.1119 15.4141 0.324773 40.7953 -0.928024 5.67026 -8.26931 19.9631
-23.9911 80.9684 -37.2624 177.289 172.342 552.261 6.70237 -9.70017 -3.33289 2.44907 -0.331539 -1.07649 4.28089 11.3813 11.3678 -9.34095 -14.632 20.7569 -0.0 0.0 0.0 -0.0 0.0 0.0 2.57475e-13 3.19253e-13 -1.39447e-13 81.0317 46.981 -7.96742 -28.3611 -33.6306 73.0961 -0.00283022 -1.51887 -0.213514 -1.92444e-09 -3.56439e-08 5.40045e-09 -3.33008e-09 -6.15592e-08 9.32925e-09 -1.92444e-09 -3.56439e-08 5.40043e-09 7.73091 5.47488 0.417314 -1.92444e-09 -3.56439e-08 5.40044e-09 2.90554 0.965183 0.102902 -1.92443e-09 -3.56439e-08 5.40044e-09 10.2786 0.731801 0.0259123 -1.92444e-09 -3.56439e-08 5.40045e-09 2.22167 -0.733487 -0.20892 2.57295e-13 3.19243e-13 -1.39646e-13 -80.7329 -33.9367 -110.035 4.21346 -1.30563 -7.31528 0.769774 24.1016 -3.60465 1.5382e-09 1.89072e-09 -6.47599e-10 2.64402e-09 3.31424e-09 -1.14213e-09 1.53819e-09 1.89072e-09 -6.4759e-10 -7.73091 5.47488 -0.417314 1.53819e-09 1.89072e-09 -6.47602e-10 -2.90554 0.965183 -0.102902 1.53819e-09 1.89071e-09 -6.47597e-10 -10.2786 0.731801 -0.0259123 1.5382e-09 1.89072e-09 -6.47602e-10 -2.22167 -0.733487 0.20892 -2.03217e-16 0.0 -3.88251e-19 3.4559 -7.74395 3.56522 -0.0313449 26.6249 0.763464 -3.14492 -12.1812 -10.0398 2.03217e-16 0.0 3.88251e-19 11.6372 -40.1648 16.1188 0.35547 42.3263 -0.987103 5.79642 -8.4571 20.015
